<?xml version="1.0" standalone="no"?>
<!DOCTYPE svg PUBLIC "-//W3C//DTD SVG 20010904//EN"
 "http://www.w3.org/TR/2001/REC-SVG-20010904/DTD/svg10.dtd">
<svg version="1.0" xmlns="http://www.w3.org/2000/svg"
 width="639.000000pt" height="639.000000pt" viewBox="0 0 639.000000 639.000000"
 preserveAspectRatio="xMidYMid meet">
<metadata>
Created by potrace 1.11, written by Peter Selinger 2001-2013
</metadata>
<g transform="translate(0.000000,639.000000) scale(0.100000,-0.100000)"
fill="#000000" stroke="none">
<path d="M3265 4639 c11 -13 21 -26 22 -28 2 -2 3 2 3 10 0 8 -10 20 -22 28
l-23 14 20 -24z"/>
<path d="M3399 4641 c-1 -6 -2 -17 -3 -23 -3 -20 14 -38 35 -38 11 0 19 6 19
13 0 16 -50 63 -51 48z"/>
<path d="M3477 4560 c-18 -22 -23 -70 -7 -70 9 0 35 79 28 86 -2 2 -12 -6 -21
-16z"/>
<path d="M3412 4495 c4 -26 38 -34 37 -8 0 11 -3 13 -6 5 -4 -10 -9 -9 -19 5
-14 17 -15 17 -12 -2z"/>
<path d="M3517 4485 c6 -32 11 -41 17 -34 2 2 -2 18 -10 34 l-13 30 6 -30z"/>
<path d="M3540 4410 c0 -6 -4 -9 -9 -6 -5 3 -16 -5 -25 -18 -8 -14 -24 -27
-35 -31 -18 -5 -31 -41 -47 -125 -3 -19 -22 -67 -41 -107 -35 -70 -76 -109
-160 -152 -13 -7 -23 -20 -23 -31 0 -26 -7 -29 -89 -36 -39 -4 -71 -10 -71
-14 0 -4 -12 -6 -27 -4 -35 4 -83 -6 -83 -17 0 -5 8 -9 18 -10 14 0 14 -2 -3
-9 -19 -7 -18 -9 8 -19 16 -6 36 -11 45 -11 14 0 15 -2 3 -9 -11 -7 -4 -11 25
-16 67 -11 70 -13 26 -14 -73 -2 -241 45 -300 84 -81 55 -158 86 -185 75 -12
-5 -16 -9 -9 -9 7 -1 11 -5 8 -9 -6 -10 51 -72 67 -72 6 0 18 -6 26 -13 9 -8
35 -19 59 -26 69 -19 161 -91 117 -91 -37 0 0 -47 62 -79 23 -11 56 -21 72
-21 38 0 162 65 267 140 84 60 113 65 95 18 -5 -14 -19 -33 -31 -41 -17 -12
-24 -31 -31 -89 -13 -106 -22 -141 -39 -144 -55 -12 -83 -22 -63 -23 33 -2 34
-13 7 -70 -13 -29 -24 -61 -24 -71 0 -11 -4 -21 -9 -24 -10 -6 -45 6 -72 25
-18 13 -93 3 -84 -11 3 -5 -3 -8 -12 -8 -10 1 -38 -12 -63 -29 -25 -17 -65
-36 -89 -43 -40 -11 -46 -10 -59 7 -16 22 -36 19 -63 -8 l-20 -20 -24 23 c-59
56 -62 57 -84 42 -20 -14 -20 -15 11 -74 17 -33 34 -63 39 -66 5 -3 9 -12 9
-19 0 -8 20 -44 45 -81 25 -36 45 -67 45 -70 0 -9 49 -54 60 -54 5 0 10 -4 10
-10 0 -16 50 -60 76 -66 14 -4 57 -4 96 -2 85 7 117 27 139 89 9 24 21 57 27
72 7 15 15 40 18 55 4 15 22 58 40 97 19 38 34 79 34 90 0 11 9 34 20 50 11
17 20 38 20 48 0 9 5 17 10 17 6 0 20 16 31 35 12 19 25 33 29 30 5 -3 14 -38
20 -77 12 -71 12 -95 -9 -315 -6 -56 -13 -153 -16 -215 -3 -62 -15 -147 -25
-189 -19 -75 -19 -78 0 -280 11 -112 24 -245 30 -296 18 -151 -18 -454 -60
-512 -18 -24 -20 -32 -10 -50 6 -12 14 -54 17 -92 5 -55 9 -69 20 -64 8 3 21
5 29 5 11 0 14 17 14 73 0 40 7 125 16 188 8 63 21 168 29 234 8 66 17 135 21
154 4 20 3 36 -4 40 -16 9 -44 240 -46 371 -1 79 6 152 21 235 12 66 24 156
28 200 3 44 12 130 20 190 8 61 24 186 34 278 10 93 22 171 26 175 4 4 13 -2
22 -13 11 -15 13 -35 8 -84 -5 -55 -4 -63 9 -52 7 6 17 27 20 46 4 19 12 35
18 35 7 0 7 4 -1 14 -14 17 -19 164 -6 174 6 4 19 24 29 45 22 42 24 43 91 22
67 -20 66 -13 0 14 -54 23 -65 34 -45 46 6 4 20 25 31 48 12 23 24 44 28 47 3
3 14 19 23 35 68 121 79 189 47 284 -12 36 -26 76 -32 88 -5 12 -7 38 -3 57 4
20 3 36 -2 36 -9 0 -60 -99 -107 -205 -25 -56 -76 -114 -102 -115 -17 0 -7 53
23 114 13 28 24 59 23 70 0 19 -1 19 -8 3 -4 -10 -10 -18 -14 -18 -24 3 -29
-1 -24 -18 4 -15 -1 -18 -29 -15 -19 1 -34 -2 -34 -8 0 -17 -13 0 -17 20 -4
25 7 52 20 52 7 0 23 35 36 78 14 43 35 87 48 99 13 12 19 25 13 28 -6 3 -10
1 -10 -5z m-25 -889 c3 -5 1 -12 -5 -16 -5 -3 -10 1 -10 9 0 18 6 21 15 7z"/>
<path d="M3470 4160 c0 -5 5 -10 11 -10 5 0 7 5 4 10 -3 6 -8 10 -11 10 -2 0
-4 -4 -4 -10z"/>
<path d="M2888 4093 c7 -3 16 -2 19 1 4 3 -2 6 -13 5 -11 0 -14 -3 -6 -6z"/>
<path d="M2871 4059 c9 -17 13 -19 19 -8 11 16 4 29 -16 29 -12 0 -13 -4 -3
-21z"/>
<path d="M2606 4018 c10 -35 23 -46 44 -41 27 7 25 18 -6 42 -34 27 -47 27
-38 -1z"/>
<path d="M2487 4007 c-8 -21 18 -47 49 -47 l28 0 -32 30 c-38 34 -38 34 -45
17z"/>
<path d="M3047 4013 c-11 -10 -8 -25 3 -18 6 3 10 2 10 -3 0 -14 -54 -26 -58
-13 -4 13 -32 15 -32 2 0 -5 -8 -12 -17 -15 -10 -2 9 -4 42 -3 32 0 69 6 81
11 21 10 21 12 7 28 -17 19 -26 22 -36 11z"/>
<path d="M3155 4010 l-20 -9 20 0 c11 0 27 4 35 9 13 9 13 10 0 9 -8 0 -24 -4
-35 -9z"/>
<path d="M2938 3983 c7 -3 16 -2 19 1 4 3 -2 6 -13 5 -11 0 -14 -3 -6 -6z"/>
<path d="M2871 3868 c0 -16 2 -18 6 -8 3 8 11 18 17 22 7 5 4 8 -6 8 -12 0
-18 -7 -17 -22z"/>
<path d="M2895 3840 c4 -6 11 -8 16 -5 14 9 11 15 -7 15 -8 0 -12 -5 -9 -10z"/>
</g>
</svg>
